<mxfile host="app.diagrams.net" modified="2022-05-24T06:30:46.798Z" agent="5.0 (Windows NT 10.0; Win64; x64) AppleWebKit/537.36 (KHTML, like Gecko) Chrome/101.0.4951.54 Safari/537.36" etag="uy1JPkcnJt6gEWVnk8Ns" version="18.1.1" type="github">
  <diagram id="5dWgTGbmc96V0i9rautZ" name="Page-1">
    <mxGraphModel dx="1422" dy="802" grid="1" gridSize="10" guides="1" tooltips="1" connect="1" arrows="1" fold="1" page="1" pageScale="1" pageWidth="827" pageHeight="1169" math="0" shadow="0">
      <root>
        <mxCell id="0" />
        <mxCell id="1" parent="0" />
        <mxCell id="oqtyiHEpKOYZ8zssclwt-1" value="单例&lt;br&gt;&lt;pre style=&quot;margin-top: 0px; margin-bottom: 0px;&quot;&gt;&lt;font face=&quot;Helvetica&quot;&gt;AIFaceManager&lt;/font&gt;&lt;/pre&gt;&lt;pre style=&quot;margin-top: 0px; margin-bottom: 0px;&quot;&gt;&lt;font face=&quot;Helvetica&quot;&gt;AIVideoManager&lt;/font&gt;&lt;/pre&gt;&lt;pre style=&quot;margin-top: 0px; margin-bottom: 0px;&quot;&gt;&lt;span style=&quot;font-weight:700; color:#800080;&quot;&gt;&lt;br&gt;&lt;/span&gt;&lt;/pre&gt;" style="whiteSpace=wrap;html=1;align=left;" vertex="1" parent="1">
          <mxGeometry x="40" y="80" width="120" height="160" as="geometry" />
        </mxCell>
        <mxCell id="oqtyiHEpKOYZ8zssclwt-2" value="工具类" style="text;html=1;align=center;verticalAlign=middle;resizable=0;points=[];autosize=1;strokeColor=none;fillColor=none;" vertex="1" parent="1">
          <mxGeometry x="35" y="60" width="50" height="20" as="geometry" />
        </mxCell>
        <mxCell id="oqtyiHEpKOYZ8zssclwt-6" value="静态函数&lt;br&gt;" style="whiteSpace=wrap;html=1;align=left;" vertex="1" parent="1">
          <mxGeometry x="40" y="240" width="120" height="160" as="geometry" />
        </mxCell>
      </root>
    </mxGraphModel>
  </diagram>
</mxfile>
